<svg width="526" height="199" viewBox="0 0 526 199" fill="none" xmlns="http://www.w3.org/2000/svg">
<g clip-path="url(#clip0_4_82)">
<path d="M219.158 169.266L176.14 178.962C176.14 178.962 167.368 177.964 175.687 165.728C176.434 164.625 177.321 163.44 178.363 162.153L200.657 151.221L200.449 149.751L195.703 116.305L193.867 103.36L207.86 90.3628L210.531 87.8798L246.043 120.7L245.79 121.167L230.945 147.976L219.158 169.266Z" fill="#FFB7B7"/>
<path d="M203.252 159.519L160.234 169.214C159.588 169.141 158.966 168.932 158.407 168.601C157.848 168.269 157.365 167.823 156.992 167.292C156.618 166.76 156.361 166.156 156.239 165.518C156.116 164.88 156.131 164.224 156.281 163.592C156.489 162.342 156.881 161.129 157.444 159.994C158.81 157.276 160.492 154.729 162.457 152.405L184.751 141.473L182.017 122.211L180.655 112.605L179.774 106.394L177.962 93.6123L194.625 78.1325L212.774 94.9009L230.138 110.952L227.794 115.178L225 120.229L211.592 144.457L208.86 149.392L203.252 159.519Z" fill="#FFB7B7"/>
<path d="M278.042 152.748C278.042 152.748 261.923 151.676 255.894 140.781C253.986 137.176 253.25 133.066 253.79 129.024L247.221 116.049L237.871 97.5605L214.019 93.7976L212.774 94.901L195.479 110.253L190.188 114.951L182.017 122.211L142.392 157.386C140.814 160.194 138.787 162.725 136.391 164.879C134.188 166.921 131.765 168.711 129.165 170.216C121.605 174.6 110.302 178.007 94.05 176.218L8.37346 199L0 141.591L71.8607 117.984L177.248 49.109L248.391 67.2996L281.382 114.103L278.042 152.748Z" fill="#FFB7B7"/>
<path d="M521.652 -1.52588e-05H221.62C220.467 0.00127394 219.362 0.459419 218.546 1.27389C217.731 2.08836 217.273 3.19264 217.271 4.34447V181.848C217.273 182.999 217.731 184.104 218.546 184.918C219.361 185.733 220.467 186.191 221.62 186.192H521.652C522.805 186.191 523.91 185.733 524.725 184.918C525.54 184.104 525.999 182.999 526 181.848V4.34445C525.999 3.19264 525.54 2.08839 524.725 1.27394C523.91 0.459484 522.805 0.00132488 521.652 -1.52588e-05Z" fill="white"/>
<path d="M521.652 -1.52588e-05H221.62C220.467 0.00127394 219.362 0.459419 218.546 1.27389C217.731 2.08836 217.273 3.19264 217.271 4.34447V181.848C217.273 182.999 217.731 184.104 218.546 184.918C219.361 185.733 220.467 186.191 221.62 186.192H521.652C522.805 186.191 523.91 185.733 524.725 184.918C525.54 184.104 525.999 182.999 526 181.848V4.34445C525.999 3.19264 525.54 2.08839 524.725 1.27394C523.91 0.459484 522.805 0.00132488 521.652 -1.52588e-05ZM524.758 181.848C524.757 182.67 524.43 183.46 523.848 184.042C523.265 184.623 522.475 184.95 521.652 184.951H221.62C220.796 184.95 220.006 184.623 219.424 184.042C218.841 183.46 218.514 182.67 218.514 181.848V4.34445C218.514 3.52154 218.841 2.73243 219.424 2.15055C220.006 1.56866 220.796 1.24162 221.62 1.24126H521.652C522.475 1.24162 523.265 1.56866 523.848 2.15055C524.43 2.73243 524.757 3.52154 524.758 4.34445V181.848Z" fill="#3F3D56"/>
<path d="M250.813 24.2064C249.339 24.2064 247.898 23.7696 246.672 22.9512C245.446 22.1328 244.49 20.9697 243.926 19.6088C243.362 18.2479 243.214 16.7504 243.502 15.3057C243.79 13.861 244.5 12.5339 245.542 11.4924C246.585 10.4508 247.913 9.74147 249.359 9.4541C250.805 9.16673 252.304 9.31421 253.666 9.87791C255.028 10.4416 256.192 11.3962 257.011 12.621C257.83 13.8457 258.267 15.2857 258.267 16.7587C258.267 18.7339 257.482 20.6283 256.084 22.025C254.686 23.4217 252.79 24.2064 250.813 24.2064ZM250.813 10.5523C249.584 10.5523 248.383 10.9163 247.362 11.5982C246.34 12.2802 245.544 13.2495 245.074 14.3836C244.604 15.5176 244.481 16.7655 244.721 17.9695C244.96 19.1734 245.552 20.2793 246.421 21.1473C247.289 22.0153 248.396 22.6063 249.601 22.8458C250.806 23.0853 252.055 22.9624 253.19 22.4926C254.325 22.0229 255.295 21.2274 255.978 20.2068C256.661 19.1861 257.025 17.9862 257.025 16.7587C257.025 15.9436 256.864 15.1366 256.552 14.3836C256.24 13.6306 255.782 12.9464 255.205 12.3701C254.629 11.7938 253.944 11.3366 253.19 11.0247C252.437 10.7128 251.629 10.5523 250.813 10.5523Z" fill="#FACC15"/>
<path d="M239.227 16.7587C239.227 15.338 239.671 13.9528 240.496 12.7959C241.321 11.6391 242.487 10.7683 243.831 10.3049C242.802 9.95012 241.703 9.84623 240.625 10.0018C239.548 10.1575 238.523 10.5681 237.637 11.1995C236.75 11.8309 236.027 12.6648 235.529 13.6318C235.03 14.5988 234.77 15.6709 234.77 16.7587C234.77 17.8465 235.03 18.9185 235.529 19.8855C236.027 20.8525 236.75 21.6864 237.637 22.3178C238.523 22.9492 239.548 23.3599 240.625 23.5155C241.703 23.6711 242.802 23.5672 243.831 23.2124C242.487 22.749 241.321 21.8782 240.496 20.7214C239.671 19.5646 239.227 18.1793 239.227 16.7587Z" fill="#FACC15"/>
<path d="M281.03 104.752C279.548 104.75 278.126 104.161 277.078 103.114C276.03 102.067 275.441 100.647 275.439 99.1661V82.4088C275.441 80.9285 276.031 79.5095 277.079 78.4634C278.127 77.4173 279.548 76.8297 281.03 76.8297C282.511 76.8297 283.932 77.4173 284.981 78.4634C286.029 79.5095 286.619 80.9285 286.62 82.4088V99.1661C286.619 100.647 286.029 102.067 284.981 103.114C283.933 104.161 282.512 104.75 281.03 104.752Z" fill="#FACC15"/>
<path d="M295.938 104.752C294.456 104.75 293.035 104.161 291.987 103.114C290.939 102.067 290.349 100.647 290.347 99.1661V82.4088C290.349 80.9285 290.939 79.5095 291.987 78.4634C293.036 77.4173 294.457 76.8297 295.938 76.8297C297.42 76.8297 298.841 77.4173 299.889 78.4634C300.937 79.5095 301.527 80.9285 301.529 82.4088V99.1661C301.527 100.647 300.938 102.067 299.889 103.114C298.841 104.161 297.42 104.75 295.938 104.752Z" fill="#FACC15"/>
<path d="M310.847 104.752C309.364 104.75 307.943 104.161 306.895 103.114C305.847 102.067 305.258 100.647 305.256 99.1661V82.4088C305.258 80.9285 305.847 79.5095 306.896 78.4634C307.944 77.4173 309.365 76.8297 310.847 76.8297C312.328 76.8297 313.749 77.4173 314.797 78.4634C315.846 79.5095 316.435 80.9285 316.437 82.4088V99.1661C316.435 100.647 315.846 102.067 314.798 103.114C313.75 104.161 312.329 104.75 310.847 104.752Z" fill="#FACC15"/>
<path d="M333.83 104.752C332.348 104.75 330.927 104.161 329.879 103.114C328.831 102.067 328.241 100.647 328.24 99.1661V82.4088C328.241 80.9285 328.831 79.5095 329.88 78.4634C330.928 77.4173 332.349 76.8297 333.83 76.8297C335.312 76.8297 336.733 77.4173 337.781 78.4634C338.829 79.5095 339.419 80.9285 339.421 82.4088V99.1661C339.419 100.647 338.83 102.067 337.782 103.114C336.734 104.161 335.313 104.75 333.83 104.752Z" fill="#FACC15"/>
<path d="M348.739 104.752C347.257 104.75 345.836 104.161 344.787 103.114C343.739 102.067 343.15 100.647 343.148 99.1661V82.4088C343.15 80.9285 343.74 79.5095 344.788 78.4634C345.836 77.4173 347.257 76.8297 348.739 76.8297C350.22 76.8297 351.641 77.4173 352.69 78.4634C353.738 79.5095 354.328 80.9285 354.329 82.4088V99.1661C354.328 100.647 353.738 102.067 352.69 103.114C351.642 104.161 350.221 104.75 348.739 104.752Z" fill="#FACC15"/>
<path d="M363.647 104.752C362.165 104.75 360.744 104.161 359.696 103.114C358.648 102.067 358.058 100.647 358.057 99.1661V82.4088C358.058 80.9285 358.648 79.5095 359.696 78.4634C360.745 77.4173 362.166 76.8297 363.647 76.8297C365.129 76.8297 366.55 77.4173 367.598 78.4634C368.646 79.5095 369.236 80.9285 369.238 82.4088V99.1661C369.236 100.647 368.647 102.067 367.598 103.114C366.55 104.161 365.129 104.75 363.647 104.752Z" fill="#FACC15"/>
<path d="M386.631 104.752C385.149 104.75 383.728 104.161 382.68 103.114C381.632 102.067 381.042 100.647 381.04 99.1661V82.4088C381.042 80.9285 381.632 79.5095 382.68 78.4634C383.728 77.4173 385.149 76.8297 386.631 76.8297C388.113 76.8297 389.534 77.4173 390.582 78.4634C391.63 79.5095 392.22 80.9285 392.222 82.4088V99.1661C392.22 100.647 391.63 102.067 390.582 103.114C389.534 104.161 388.113 104.75 386.631 104.752Z" fill="#FACC15"/>
<path d="M401.539 104.752C400.057 104.75 398.636 104.161 397.588 103.114C396.54 102.067 395.95 100.647 395.949 99.1661V82.4088C395.951 80.9285 396.54 79.5095 397.589 78.4634C398.637 77.4173 400.058 76.8297 401.539 76.8297C403.021 76.8297 404.442 77.4173 405.49 78.4634C406.538 79.5095 407.128 80.9285 407.13 82.4088V99.1661C407.128 100.647 406.539 102.067 405.491 103.114C404.443 104.161 403.022 104.75 401.539 104.752Z" fill="#FACC15"/>
<path d="M416.448 104.752C414.966 104.75 413.545 104.161 412.496 103.114C411.448 102.067 410.859 100.647 410.857 99.1661V82.4088C410.859 80.9285 411.449 79.5095 412.497 78.4634C413.545 77.4173 414.966 76.8297 416.448 76.8297C417.929 76.8297 419.35 77.4173 420.399 78.4634C421.447 79.5095 422.037 80.9285 422.038 82.4088V99.1661C422.037 100.647 421.447 102.067 420.399 103.114C419.351 104.161 417.93 104.75 416.448 104.752Z" fill="#FACC15"/>
<path d="M439.432 104.752C437.949 104.75 436.528 104.161 435.48 103.114C434.432 102.067 433.843 100.647 433.841 99.1661V82.4088C433.843 80.9285 434.433 79.5095 435.481 78.4634C436.529 77.4173 437.95 76.8297 439.432 76.8297C440.913 76.8297 442.334 77.4173 443.382 78.4634C444.431 79.5095 445.02 80.9285 445.022 82.4088V99.1661C445.021 100.647 444.431 102.067 443.383 103.114C442.335 104.161 440.914 104.75 439.432 104.752Z" fill="#FACC15"/>
<path d="M454.34 104.752C452.858 104.75 451.437 104.161 450.389 103.114C449.341 102.067 448.751 100.647 448.749 99.1661V82.4088C448.751 80.9285 449.341 79.5095 450.389 78.4634C451.437 77.4173 452.858 76.8297 454.34 76.8297C455.822 76.8297 457.243 77.4173 458.291 78.4634C459.339 79.5095 459.929 80.9285 459.931 82.4088V99.1661C459.929 100.647 459.339 102.067 458.291 103.114C457.243 104.161 455.822 104.75 454.34 104.752Z" fill="#FACC15"/>
<path d="M469.248 104.752C467.766 104.75 466.345 104.161 465.297 103.114C464.249 102.067 463.659 100.647 463.658 99.1661V82.4088C463.66 80.9285 464.249 79.5095 465.298 78.4634C466.346 77.4173 467.767 76.8297 469.248 76.8297C470.73 76.8297 472.151 77.4173 473.199 78.4634C474.248 79.5095 474.837 80.9285 474.839 82.4088V99.1661C474.837 100.647 474.248 102.067 473.2 103.114C472.152 104.161 470.731 104.75 469.248 104.752Z" fill="#FACC15"/>
<path d="M318.933 166.919H238.527C238.033 166.92 237.544 166.824 237.088 166.635C236.631 166.447 236.217 166.171 235.867 165.822C235.518 165.474 235.24 165.06 235.051 164.604C234.862 164.148 234.765 163.66 234.765 163.166C234.765 162.673 234.862 162.184 235.051 161.729C235.24 161.273 235.518 160.859 235.867 160.51C236.217 160.162 236.631 159.885 237.088 159.697C237.544 159.509 238.033 159.412 238.527 159.413H318.933C319.928 159.414 320.883 159.811 321.586 160.514C322.289 161.218 322.684 162.172 322.684 163.166C322.684 164.161 322.289 165.115 321.586 165.818C320.883 166.522 319.928 166.918 318.933 166.919Z" fill="#E6E6E6"/>
<path d="M293.154 150.783H264.306C263.31 150.783 262.354 150.387 261.65 149.684C260.945 148.98 260.549 148.025 260.549 147.03C260.549 146.034 260.945 145.08 261.65 144.376C262.354 143.672 263.31 143.276 264.306 143.276H293.154C294.15 143.276 295.106 143.672 295.81 144.376C296.515 145.08 296.911 146.034 296.911 147.03C296.911 148.025 296.515 148.98 295.81 149.684C295.106 150.387 294.15 150.783 293.154 150.783Z" fill="#E6E6E6"/>
<path d="M524.534 37.1021H218.29V38.3433H524.534V37.1021Z" fill="#3F3D56"/>
<path opacity="0.15" d="M183.274 162.973L182.622 161.504L209.173 149.74L215.502 127.554L205.961 119.847L206.972 118.596L217.341 126.972L210.514 150.904L183.274 162.973Z" fill="black"/>
<path opacity="0.1" d="M157.444 159.994L150.465 163.39L136.391 164.879C134.188 166.921 131.765 168.711 129.165 170.216L116.824 169.807L95.9785 169.155L166.449 109.119L180.655 112.605C180.655 112.605 156.786 161.395 157.444 159.994Z" fill="black"/>
<path d="M255.894 140.781C254.045 141.137 252.016 141.431 249.775 141.657C238.206 142.813 213.749 144.349 211.592 144.457C197.106 145.138 187.999 145.13 187.999 145.13L157.444 159.994L150.465 163.39L93.8968 169.376L170.495 104.118L179.774 106.394L195.479 110.253L212.781 114.503L227.794 115.178L247.221 116.049L262.923 116.753C265.644 116.847 268.216 118.013 270.079 119.997C271.942 121.98 272.944 124.619 272.866 127.337C272.619 132.513 269.027 138.231 255.894 140.781Z" fill="#FFB7B7"/>
<path opacity="0.15" d="M261.849 136.846C261.599 136.77 255.7 134.916 253.827 129.727C252.569 126.239 253.455 122.158 256.461 117.596L257.804 118.48C255.095 122.591 254.265 126.189 255.337 129.173C256.929 133.602 262.267 135.293 262.32 135.309L261.849 136.846Z" fill="black"/>
<path opacity="0.15" d="M185.525 145.437L158.493 158.592L159.198 160.038L186.23 146.882L185.525 145.437Z" fill="black"/>
<path opacity="0.15" d="M175.432 108.139L213.723 93.0496L214.314 94.5454L181.224 107.585L209.346 112.833L209.05 114.414L175.432 108.139Z" fill="black"/>
</g>
<defs>
<clipPath id="clip0_4_82">
<rect width="526" height="199" fill="white"/>
</clipPath>
</defs>
</svg>
