<svg width="1080" height="1080" viewBox="0 0 1080 1080" fill="none" xmlns="http://www.w3.org/2000/svg">
<rect x="242.005" y="484.32" width="694.014" height="418.9" rx="8" transform="rotate(-0.103831 242.005 484.32)" fill="white"/>
<rect x="142" y="372.557" width="695.341" height="349.07" rx="8" transform="rotate(-16.4201 142 372.557)" fill="white"/>
<g clip-path="url(#clip0_94_30)">
<path d="M828.874 244.482L161.152 439.077L178.838 499.794L846.56 305.199L828.874 244.482Z" fill="black"/>
<path d="M240.927 717.972L142.51 380.102C141.78 377.597 142.076 374.905 143.33 372.617C144.585 370.33 146.697 368.635 149.202 367.905L800.736 178.027C803.24 177.3 805.93 177.596 808.217 178.851C810.503 180.106 812.198 182.217 812.93 184.72L900.119 484.049L897.422 484.835L810.232 185.506C809.708 183.719 808.497 182.212 806.864 181.316C805.232 180.42 803.31 180.208 801.522 180.726L149.988 370.603C148.199 371.125 146.69 372.336 145.794 373.969C144.898 375.603 144.687 377.526 145.208 379.316L243.625 717.186L240.927 717.972Z" fill="black"/>
<path d="M755.914 485.44C753.937 485.438 752.015 484.796 750.433 483.61C748.852 482.423 747.697 480.756 747.142 478.859L730.635 422.19C729.96 419.864 730.236 417.365 731.4 415.242C732.565 413.119 734.524 411.544 736.848 410.864L793.504 394.353C795.829 393.678 798.327 393.954 800.45 395.119C802.573 396.284 804.146 398.244 804.826 400.569L821.333 457.238C822.008 459.564 821.732 462.063 820.568 464.186C819.403 466.309 817.444 467.883 815.12 468.563L758.464 485.075C757.636 485.317 756.777 485.44 755.914 485.44Z" fill="#FACC15"/>
<path d="M239.406 381.147C239.236 380.565 239.034 379.993 238.802 379.433C237.217 375.587 234.268 372.463 230.521 370.66C226.774 368.857 222.492 368.503 218.5 369.665C214.507 370.828 211.085 373.426 208.891 376.959C206.697 380.492 205.886 384.711 206.613 388.807C206.715 389.404 206.851 389.995 207.02 390.577C208.046 394.08 210.179 397.157 213.1 399.346C216.02 401.535 219.571 402.718 223.22 402.72C224.813 402.723 226.399 402.496 227.927 402.045C232.216 400.792 235.834 397.888 237.986 393.97C240.137 390.052 240.648 385.441 239.406 381.147ZM227.14 399.347C223.563 400.385 219.72 399.963 216.454 398.171C213.188 396.38 210.766 393.366 209.718 389.79C209.554 389.208 209.422 388.617 209.324 388.02C208.797 384.646 209.517 381.195 211.349 378.313C213.181 375.431 215.999 373.315 219.277 372.361C222.556 371.407 226.069 371.68 229.161 373.129C232.253 374.578 234.711 377.104 236.076 380.234C236.33 380.784 236.542 381.352 236.708 381.934C237.745 385.513 237.32 389.356 235.526 392.621C233.732 395.886 230.716 398.305 227.14 399.347Z" fill="#FACC15"/>
<path d="M198.053 393.191C197.154 390.103 197.24 386.81 198.3 383.773C199.36 380.736 201.34 378.105 203.966 376.247C201.506 376.127 199.053 376.597 196.812 377.617C194.57 378.637 192.605 380.178 191.08 382.112C189.555 384.046 188.513 386.316 188.043 388.734C187.572 391.152 187.686 393.647 188.375 396.012C189.064 398.377 190.308 400.543 192.003 402.329C193.698 404.116 195.796 405.472 198.121 406.283C200.446 407.095 202.931 407.339 205.369 406.995C207.808 406.652 210.129 405.73 212.139 404.308C208.927 404.151 205.844 402.996 203.319 401.003C200.794 399.011 198.953 396.28 198.053 393.191Z" fill="#FACC15"/>
<path d="M634.821 462.842C634.522 461.766 634.014 460.76 633.326 459.882C632.638 459.003 631.783 458.268 630.811 457.72C629.839 457.172 628.768 456.821 627.66 456.687C626.552 456.553 625.429 456.639 624.354 456.939L531.074 483.037L521.029 485.848H584.114L594.16 483.037L628.934 473.312C631.102 472.703 632.939 471.258 634.043 469.295C635.147 467.332 635.426 465.011 634.821 462.842Z" fill="#CCCCCC"/>
<path d="M568.827 443.349C568.22 441.18 566.775 439.341 564.812 438.237C562.85 437.133 560.528 436.854 558.36 437.461L418.392 476.614C416.436 477.169 414.743 478.404 413.617 480.097C412.491 481.79 412.007 483.829 412.252 485.848H448.487L458.547 483.037L562.94 453.833C565.11 453.222 566.948 451.775 568.052 449.809C569.156 447.844 569.435 445.52 568.827 443.349Z" fill="#CCCCCC"/>
<path d="M929.165 483.034H250.539C247.931 483.037 245.431 484.074 243.587 485.919C241.744 487.763 240.707 490.263 240.704 492.872V894.809C240.706 897.417 241.744 899.917 243.587 901.762C245.431 903.606 247.931 904.643 250.539 904.646H929.165C931.772 904.643 934.272 903.606 936.116 901.762C937.96 899.917 938.997 897.417 939 894.809V492.872C938.997 490.263 937.96 487.763 936.116 485.919C934.272 484.074 931.772 483.037 929.165 483.034ZM936.19 894.809C936.189 896.672 935.449 898.459 934.132 899.776C932.814 901.094 931.028 901.835 929.165 901.835H250.539C248.676 901.835 246.889 901.094 245.572 899.776C244.255 898.459 243.514 896.672 243.514 894.809V492.872C243.514 491.008 244.255 489.221 245.572 487.904C246.889 486.586 248.676 485.845 250.539 485.845H929.165C931.028 485.845 932.814 486.586 934.132 487.904C935.449 489.221 936.189 491.008 936.19 492.872V894.809Z" fill="black"/>
<path d="M316.57 537.847C313.235 537.847 309.975 536.858 307.203 535.004C304.43 533.151 302.269 530.518 300.993 527.436C299.717 524.354 299.383 520.963 300.033 517.692C300.684 514.421 302.29 511.416 304.648 509.057C307.006 506.699 310.01 505.092 313.28 504.442C316.551 503.791 319.941 504.125 323.022 505.401C326.103 506.678 328.736 508.839 330.589 511.613C332.441 514.386 333.43 517.647 333.43 520.982C333.425 525.453 331.647 529.74 328.486 532.901C325.325 536.063 321.04 537.842 316.57 537.847ZM316.57 506.928C313.791 506.928 311.074 507.753 308.764 509.297C306.453 510.841 304.652 513.036 303.589 515.604C302.526 518.172 302.247 520.998 302.79 523.724C303.332 526.45 304.67 528.954 306.635 530.92C308.6 532.885 311.103 534.224 313.829 534.766C316.554 535.308 319.379 535.03 321.947 533.966C324.514 532.902 326.708 531.101 328.252 528.79C329.796 526.479 330.62 523.762 330.62 520.982C330.616 517.256 329.134 513.684 326.5 511.049C323.866 508.415 320.295 506.933 316.57 506.928Z" fill="#FACC15"/>
<path d="M290.363 520.982C290.363 517.765 291.367 514.628 293.234 512.009C295.101 509.389 297.738 507.418 300.778 506.368C298.45 505.565 295.964 505.33 293.527 505.682C291.09 506.034 288.772 506.964 286.767 508.394C284.762 509.824 283.127 511.712 281.999 513.902C280.871 516.091 280.283 518.519 280.283 520.982C280.283 523.445 280.871 525.873 281.999 528.062C283.127 530.252 284.762 532.14 286.767 533.57C288.772 535 291.09 535.93 293.527 536.282C295.964 536.635 298.45 536.399 300.778 535.596C297.738 534.546 295.101 532.575 293.234 529.955C291.367 527.336 290.363 524.199 290.363 520.982Z" fill="#FACC15"/>
<path d="M384.915 720.233C381.563 720.229 378.349 718.896 375.978 716.524C373.607 714.153 372.274 710.938 372.27 707.585V669.64C372.27 666.285 373.602 663.068 375.974 660.696C378.345 658.324 381.561 656.991 384.915 656.991C388.269 656.991 391.485 658.324 393.857 660.696C396.228 663.068 397.56 666.285 397.56 669.64V707.585C397.557 710.938 396.223 714.153 393.852 716.524C391.482 718.896 388.268 720.229 384.915 720.233Z" fill="#FACC15"/>
<path d="M418.636 720.233C415.283 720.229 412.069 718.896 409.698 716.524C407.328 714.153 405.994 710.938 405.99 707.585V669.64C405.99 666.285 407.323 663.068 409.694 660.696C412.066 658.324 415.282 656.991 418.636 656.991C421.989 656.991 425.206 658.324 427.577 660.696C429.949 663.068 431.281 666.285 431.281 669.64V707.585C431.277 710.938 429.944 714.153 427.573 716.524C425.202 718.896 421.988 720.229 418.636 720.233Z" fill="#FACC15"/>
<path d="M452.356 720.233C449.004 720.229 445.79 718.896 443.419 716.524C441.048 714.153 439.715 710.938 439.711 707.585V669.64C439.711 666.285 441.043 663.068 443.415 660.696C445.786 658.324 449.002 656.991 452.356 656.991C455.71 656.991 458.926 658.324 461.298 660.696C463.669 663.068 465.001 666.285 465.001 669.64V707.585C464.997 710.938 463.664 714.153 461.293 716.524C458.923 718.896 455.709 720.229 452.356 720.233Z" fill="#FACC15"/>
<path d="M504.342 720.233C500.989 720.229 497.775 718.896 495.405 716.524C493.034 714.153 491.701 710.938 491.697 707.585V669.64C491.697 666.285 493.029 663.068 495.4 660.696C497.772 658.324 500.988 656.991 504.342 656.991C507.696 656.991 510.912 658.324 513.283 660.696C515.655 663.068 516.987 666.285 516.987 669.64V707.585C516.983 710.938 515.65 714.153 513.279 716.524C510.909 718.896 507.695 720.229 504.342 720.233Z" fill="#FACC15"/>
<path d="M538.062 720.233C534.71 720.229 531.496 718.896 529.125 716.524C526.755 714.153 525.421 710.938 525.417 707.585V669.64C525.417 666.285 526.75 663.068 529.121 660.696C531.492 658.324 534.709 656.991 538.062 656.991C541.416 656.991 544.632 658.324 547.004 660.696C549.375 663.068 550.708 666.285 550.708 669.64V707.585C550.704 710.938 549.37 714.153 547 716.524C544.629 718.896 541.415 720.229 538.062 720.233Z" fill="#FACC15"/>
<path d="M571.783 720.233C568.431 720.229 565.217 718.896 562.846 716.524C560.475 714.153 559.142 710.938 559.138 707.585V669.64C559.138 666.285 560.47 663.068 562.842 660.696C565.213 658.324 568.429 656.991 571.783 656.991C575.137 656.991 578.353 658.324 580.725 660.696C583.096 663.068 584.428 666.285 584.428 669.64V707.585C584.424 710.938 583.091 714.153 580.72 716.524C578.35 718.896 575.136 720.229 571.783 720.233Z" fill="#FACC15"/>
<path d="M623.769 720.233C620.416 720.229 617.202 718.896 614.832 716.524C612.461 714.153 611.127 710.938 611.124 707.585V669.64C611.124 666.285 612.456 663.068 614.827 660.696C617.199 658.324 620.415 656.991 623.769 656.991C627.122 656.991 630.339 658.324 632.71 660.696C635.082 663.068 636.414 666.285 636.414 669.64V707.585C636.41 710.938 635.077 714.153 632.706 716.524C630.335 718.896 627.121 720.229 623.769 720.233Z" fill="#FACC15"/>
<path d="M657.489 720.233C654.137 720.229 650.923 718.896 648.552 716.524C646.182 714.153 644.848 710.938 644.844 707.585V669.64C644.844 666.285 646.177 663.068 648.548 660.696C650.919 658.324 654.136 656.991 657.489 656.991C660.843 656.991 664.059 658.324 666.431 660.696C668.802 663.068 670.135 666.285 670.135 669.64V707.585C670.131 710.938 668.797 714.153 666.427 716.524C664.056 718.896 660.842 720.229 657.489 720.233Z" fill="#FACC15"/>
<path d="M691.21 720.233C687.857 720.229 684.643 718.896 682.273 716.524C679.902 714.153 678.569 710.938 678.565 707.585V669.64C678.565 666.285 679.897 663.068 682.268 660.696C684.64 658.324 687.856 656.991 691.21 656.991C694.564 656.991 697.78 658.324 700.151 660.696C702.523 663.068 703.855 666.285 703.855 669.64V707.585C703.851 710.938 702.518 714.153 700.147 716.524C697.777 718.896 694.562 720.229 691.21 720.233Z" fill="#FACC15"/>
<path d="M743.195 720.233C739.843 720.229 736.629 718.896 734.258 716.524C731.888 714.153 730.554 710.938 730.55 707.585V669.64C730.55 666.285 731.883 663.068 734.254 660.696C736.625 658.324 739.842 656.991 743.195 656.991C746.549 656.991 749.766 658.324 752.137 660.696C754.508 663.068 755.841 666.285 755.841 669.64V707.585C755.837 710.938 754.503 714.153 752.133 716.524C749.762 718.896 746.548 720.229 743.195 720.233Z" fill="#FACC15"/>
<path d="M776.916 720.233C773.564 720.229 770.35 718.896 767.979 716.524C765.608 714.153 764.275 710.938 764.271 707.585V669.64C764.271 666.285 765.603 663.068 767.975 660.696C770.346 658.324 773.562 656.991 776.916 656.991C780.27 656.991 783.486 658.324 785.858 660.696C788.229 663.068 789.561 666.285 789.561 669.64V707.585C789.558 710.938 788.224 714.153 785.853 716.524C783.483 718.896 780.269 720.229 776.916 720.233Z" fill="#FACC15"/>
<path d="M810.637 720.233C807.284 720.229 804.07 718.896 801.699 716.524C799.329 714.153 797.995 710.938 797.991 707.585V669.64C797.991 666.285 799.324 663.068 801.695 660.696C804.067 658.324 807.283 656.991 810.637 656.991C813.99 656.991 817.207 658.324 819.578 660.696C821.95 663.068 823.282 666.285 823.282 669.64V707.585C823.278 710.938 821.945 714.153 819.574 716.524C817.203 718.896 813.989 720.229 810.637 720.233Z" fill="#FACC15"/>
<path d="M470.647 861.005H288.78C286.527 861.005 284.366 860.11 282.772 858.516C281.179 856.922 280.284 854.761 280.284 852.507C280.284 850.253 281.179 848.091 282.772 846.497C284.366 844.903 286.527 844.008 288.78 844.008H470.647C472.9 844.008 475.061 844.903 476.655 846.497C478.248 848.091 479.143 850.253 479.143 852.507C479.143 854.761 478.248 856.922 476.655 858.516C475.061 860.11 472.9 861.005 470.647 861.005Z" fill="#E6E6E6"/>
<path d="M412.338 824.466H347.089C344.835 824.466 342.674 823.57 341.081 821.976C339.487 820.383 338.592 818.221 338.592 815.967C338.592 813.713 339.487 811.551 341.081 809.957C342.674 808.363 344.835 807.468 347.089 807.468H412.338C414.592 807.468 416.753 808.363 418.346 809.957C419.94 811.551 420.835 813.713 420.835 815.967C420.835 818.221 419.94 820.383 418.346 821.976C416.753 823.57 414.592 824.466 412.338 824.466Z" fill="#E6E6E6"/>
<path d="M935.684 567.048H243.008V569.858H935.684V567.048Z" fill="black"/>
</g>
<defs>
<clipPath id="clip0_94_30">
<rect width="796.887" height="727.014" fill="white" transform="translate(142.113 177.633)"/>
</clipPath>
</defs>
</svg>
