<svg width="2044" height="2281" viewBox="0 0 2044 2281" fill="none" xmlns="http://www.w3.org/2000/svg">
<g clip-path="url(#clip0_96_29)">
<path d="M1791.97 1757.5H34.086V0H1791.97V1757.5Z" fill="white"/>
<path d="M1791.97 1757.5H34.086V0H1791.97V1757.5ZM60.0583 1731.53H1765.99V25.9669H60.0583V1731.53Z" fill="#E5E5E5"/>
<path d="M1480.55 274.961H719.317V298.669H1480.55V274.961Z" fill="#E5E5E5"/>
<path d="M1480.55 336.601H719.317V360.309H1480.55V336.601Z" fill="#E5E5E5"/>
<path d="M1480.55 398.241H719.317V421.949H1480.55V398.241Z" fill="#E5E5E5"/>
<path d="M1480.55 804.251H719.317V827.959H1480.55V804.251Z" fill="#E5E5E5"/>
<path d="M1480.55 865.891H719.317V889.599H1480.55V865.891Z" fill="#E5E5E5"/>
<path d="M1480.55 927.531H719.317V951.239H1480.55V927.531Z" fill="#E5E5E5"/>
<path d="M1480.55 1333.54H719.317V1357.25H1480.55V1333.54Z" fill="#E5E5E5"/>
<path d="M1480.55 1395.18H719.317V1418.89H1480.55V1395.18Z" fill="#E5E5E5"/>
<path d="M1480.55 1456.82H719.317V1480.53H1480.55V1456.82Z" fill="#E5E5E5"/>
<path d="M414.576 463.851C401.571 457 387.997 451.289 374.005 446.782L372.222 427.05L299.867 419.257L290.671 444.477L264.705 454.219C263.776 454.571 262.891 455.032 262.07 455.591H262.042C260.593 456.57 259.358 457.834 258.415 459.307C257.471 460.779 256.837 462.428 256.552 464.153C256.275 465.869 256.34 467.622 256.745 469.312L258.117 474.938C260.093 476.118 262.125 477.243 264.155 478.313L265.446 478.972C268.411 480.509 271.43 481.963 274.532 483.308C275.163 483.583 275.849 483.857 276.481 484.131C276.535 484.159 276.562 484.159 276.617 484.186C278.073 484.79 279.527 485.366 281.009 485.915C285.878 487.774 290.845 489.368 295.886 490.69C308.754 494.119 322.014 495.854 335.331 495.85C340.189 495.85 344.993 495.63 349.741 495.164C360.591 494.162 371.303 492 381.692 488.715C381.719 488.715 381.747 488.687 381.774 488.687C388.337 486.597 394.748 484.057 400.961 481.085C400.988 481.058 401.043 481.058 401.071 481.031C402.47 480.372 403.816 479.658 405.188 478.972L405.846 478.643C406.944 478.067 408.043 477.49 409.141 476.887C411.886 475.377 414.576 473.786 417.237 472.084C417.979 471.645 418.693 471.178 419.434 470.684C420.477 469.998 421.52 469.285 422.535 468.544C419.982 466.897 417.321 465.333 414.576 463.851Z" fill="#3F3D56"/>
<path d="M278.786 476.008L274.257 455.563H262.426C262.307 455.565 262.188 455.574 262.07 455.591H262.042C257.79 455.951 253.696 457.366 250.13 459.707C247.711 461.251 245.56 463.179 243.762 465.415C247.275 468.077 250.926 470.547 254.687 472.907L254.851 472.989C255.921 473.648 257.02 474.307 258.118 474.938C260.094 476.118 262.125 477.243 264.156 478.313L265.446 478.972C268.411 480.509 271.431 481.963 274.532 483.308C275.163 483.582 275.85 483.857 276.481 484.131C276.536 484.159 276.563 484.159 276.618 484.186C278.073 484.79 279.527 485.366 281.01 485.915L278.786 476.008Z" fill="#3F3D56"/>
<path d="M333.205 406.782C361.985 406.782 385.315 383.457 385.315 354.683C385.315 325.91 361.985 302.584 333.205 302.584C304.425 302.584 281.094 325.91 281.094 354.683C281.094 383.457 304.425 406.782 333.205 406.782Z" fill="#FFB8B8"/>
<path d="M298.218 329.307C303.613 335.689 312.742 337.49 321.163 338.229C340.852 339.316 360.597 337.704 379.848 333.438C381.041 344.997 377.789 357.461 384.599 366.969C387.791 355.458 389.647 343.617 390.131 331.681C390.639 326.559 389.97 321.39 388.175 316.566C387.216 314.149 385.597 312.05 383.503 310.506C381.409 308.963 378.925 308.038 376.331 307.836C380.214 304.892 384.761 302.948 389.573 302.177L373.026 293.863L377.275 289.502L347.319 287.669L355.996 282.158C342.937 280.364 329.726 279.948 316.58 280.915C310.437 280.917 304.411 282.592 299.148 285.759C294.202 289.295 291.344 296.324 294.414 301.515C290.57 302.146 286.951 303.748 283.899 306.169C280.847 308.59 278.464 311.75 276.976 315.349C275.093 321.07 274.639 327.164 275.652 333.101C276.78 342.626 278.995 351.991 282.251 361.013L298.218 329.307Z" fill="#2F2E41"/>
<path d="M479.738 298.206C472.427 277.207 460.622 258.054 445.146 242.085C429.671 226.115 410.897 213.713 390.134 205.743C369.372 197.772 347.12 194.426 324.931 195.937C302.742 197.448 281.15 203.78 261.66 214.491C242.17 225.203 225.252 240.036 212.085 257.956C198.918 275.876 189.82 296.451 185.424 318.248C181.028 340.045 181.441 362.538 186.633 384.159C191.826 405.78 201.673 426.009 215.489 443.434C216.861 445.163 218.289 446.892 219.744 448.566C219.854 448.675 219.936 448.785 220.046 448.895C223.624 453.017 227.426 456.938 231.437 460.64C232.481 461.601 233.578 462.589 234.676 463.522C236.761 465.388 238.903 467.172 241.127 468.873C242.005 469.559 242.856 470.245 243.762 470.904C247.275 473.566 250.925 476.036 254.686 478.396L254.851 478.478C255.921 479.137 257.02 479.796 258.118 480.427C260.093 481.607 262.125 482.732 264.155 483.802L265.446 484.461C268.411 485.998 271.43 487.452 274.532 488.797C275.163 489.071 275.849 489.346 276.481 489.62C276.536 489.648 276.562 489.647 276.617 489.675C278.073 490.279 279.527 490.855 281.009 491.404C285.879 493.263 290.845 494.857 295.886 496.179C308.754 499.608 322.014 501.342 335.331 501.338C340.189 501.338 344.993 501.119 349.741 500.652C360.592 499.651 371.303 497.489 381.692 494.203C381.719 494.203 381.747 494.176 381.774 494.176C388.337 492.085 394.748 489.545 400.961 486.574C400.988 486.546 401.043 486.546 401.071 486.519C402.47 485.86 403.816 485.147 405.188 484.461L405.847 484.131C406.944 483.555 408.043 482.979 409.141 482.375C411.886 480.866 414.576 479.274 417.237 477.573C417.979 477.133 418.693 476.667 419.434 476.173C420.477 475.487 421.52 474.773 422.536 474.032C423.88 473.099 425.225 472.139 426.543 471.151C426.954 470.849 427.394 470.547 427.805 470.218C453.521 450.703 472.397 423.549 481.726 392.648C491.056 361.748 490.36 328.687 479.738 298.206ZM422.755 463.549C421.849 464.263 420.917 464.949 419.982 465.58C419.076 466.266 418.172 466.925 417.238 467.528C416.441 468.105 415.645 468.654 414.822 469.175L414.576 469.34C413.971 469.751 413.368 470.135 412.764 470.52C410.485 471.947 408.179 473.319 405.847 474.636L405.105 475.048C404.063 475.624 403.02 476.173 401.977 476.722C401.839 476.804 401.674 476.859 401.538 476.941L401.373 477.024C400.055 477.71 398.71 478.369 397.365 479C392.175 481.499 386.83 483.662 381.363 485.476C380.648 485.723 379.935 485.97 379.222 486.19C369.389 489.317 359.247 491.378 348.973 492.337C344.471 492.749 339.915 492.968 335.331 492.968C322.735 492.994 310.192 491.352 298.028 488.083C291.786 486.454 285.667 484.382 279.72 481.881C279.417 481.744 279.088 481.634 278.786 481.497C278.458 481.36 278.155 481.25 277.853 481.113C277.523 480.976 277.222 480.838 276.892 480.674C274.312 479.549 271.759 478.314 269.262 477.024L268.054 476.393C265.007 474.801 262.015 473.1 259.105 471.288C258.254 470.767 257.376 470.218 256.552 469.642C256.334 469.504 256.141 469.367 255.921 469.23C253.972 467.94 252.023 466.596 250.13 465.196C248.84 464.235 247.549 463.275 246.287 462.287C244.173 460.695 242.141 458.994 240.166 457.237C239.123 456.359 238.107 455.399 237.119 454.493C233.227 450.9 229.543 447.089 226.085 443.077C224.932 441.76 223.807 440.443 222.736 439.07C222.492 438.799 222.263 438.515 222.049 438.22C204.215 415.72 193.488 388.419 191.236 359.799C188.984 331.179 195.309 302.537 209.405 277.526C223.501 252.515 244.729 232.268 270.381 219.367C296.033 206.466 324.947 201.497 353.436 205.092C381.924 208.688 408.696 220.685 430.337 239.554C451.978 258.423 467.507 283.309 474.944 311.038C482.381 338.767 481.389 368.082 472.094 395.244C462.799 422.407 445.623 446.186 422.755 463.549Z" fill="#3F3D56"/>
<path d="M479.74 827.497C472.428 806.497 460.623 787.345 445.147 771.375C429.672 755.405 410.898 743.003 390.136 735.033C369.373 727.063 347.121 723.716 324.933 725.227C302.744 726.738 281.151 733.07 261.662 743.782C242.172 754.493 225.254 769.326 212.087 787.246C198.92 805.166 189.821 825.741 185.425 847.538C181.03 869.335 181.442 891.828 186.635 913.449C191.827 935.07 201.675 955.299 215.49 972.724C216.862 974.453 218.29 976.182 219.744 977.856C219.854 977.965 219.936 978.075 220.046 978.185C223.624 982.306 227.427 986.227 231.438 989.93C232.481 990.891 233.578 991.879 234.676 992.812C236.763 994.678 238.903 996.462 241.127 998.163C245.468 1001.58 249.995 1004.76 254.686 1007.69L254.851 1007.77C257.897 1009.66 260.999 1011.42 264.157 1013.09L265.446 1013.75C268.411 1015.29 271.43 1016.74 274.532 1018.09C275.163 1018.36 275.849 1018.64 276.48 1018.91C276.535 1018.94 276.563 1018.94 276.618 1018.96C282.885 1021.57 289.323 1023.74 295.888 1025.47C308.755 1028.9 322.014 1030.63 335.331 1030.63C340.189 1030.63 344.993 1030.41 349.741 1029.94C360.591 1028.94 371.303 1026.78 381.692 1023.49C381.72 1023.49 381.747 1023.47 381.774 1023.47C388.337 1021.38 394.748 1018.84 400.961 1015.86C400.988 1015.84 401.044 1015.84 401.071 1015.81C402.47 1015.15 403.816 1014.44 405.188 1013.75L405.848 1013.42C406.945 1012.85 408.043 1012.27 409.141 1011.67C411.886 1010.16 414.575 1008.56 417.239 1006.86C417.98 1006.42 418.693 1005.96 419.434 1005.46C421.849 1003.87 424.237 1002.17 426.543 1000.44C426.956 1000.14 427.394 999.837 427.807 999.508C453.522 979.992 472.397 952.838 481.726 921.938C491.055 891.038 490.36 857.978 479.74 827.497Z" fill="white"/>
<path d="M385.792 940.765C398.449 940.765 408.709 930.507 408.709 917.853C408.709 905.199 398.449 894.941 385.792 894.941C373.135 894.941 362.875 905.199 362.875 917.853C362.875 930.507 373.135 940.765 385.792 940.765Z" fill="#2F2E41"/>
<path d="M392.177 895.572C396.143 895.572 400.042 896.602 403.491 898.559C406.941 900.517 409.823 903.336 411.856 906.741C413.889 910.146 415.004 914.021 415.091 917.985C415.177 921.95 414.234 925.869 412.352 929.36C414.338 926.875 415.785 924.003 416.6 920.928C417.414 917.852 417.58 914.641 417.085 911.499C416.59 908.356 415.446 905.351 413.725 902.675C412.005 899.999 409.745 897.71 407.091 895.955C404.437 894.2 401.447 893.018 398.31 892.482C395.174 891.946 391.96 892.07 388.874 892.844C385.787 893.619 382.896 895.028 380.385 896.981C377.873 898.934 375.796 901.389 374.286 904.189C376.428 901.5 379.15 899.329 382.248 897.837C385.346 896.345 388.738 895.571 392.177 895.572Z" fill="#2F2E41"/>
<path d="M342.967 917.804C380.147 917.804 410.287 887.67 410.287 850.498C410.287 813.325 380.147 783.191 342.967 783.191C305.786 783.191 275.646 813.325 275.646 850.498C275.646 887.67 305.786 917.804 342.967 917.804Z" fill="#2F2E41"/>
<path d="M290.13 808.738C301.73 795.695 317.945 787.668 335.352 786.351C352.76 785.034 369.998 790.53 383.429 801.68C382.88 801.156 382.331 800.629 381.763 800.121C368.464 788.21 350.977 782.069 333.15 783.048C315.322 784.027 298.613 792.046 286.7 805.342C274.786 818.638 268.643 836.121 269.623 853.945C270.602 871.768 278.624 888.473 291.922 900.384C292.05 900.499 292.178 900.613 292.307 900.726C292.878 901.234 293.465 901.714 294.05 902.2C281.402 890.17 273.924 873.698 273.193 856.261C272.462 838.823 278.533 821.783 290.13 808.738Z" fill="#2F2E41"/>
<path d="M342.396 917.233C366.342 917.233 385.754 897.825 385.754 873.884C385.754 849.944 366.342 830.536 342.396 830.536C318.45 830.536 299.038 849.944 299.038 873.884C299.038 897.825 318.45 917.233 342.396 917.233Z" fill="#A0616A"/>
<path d="M419.983 986.83V1001.37C417.32 1003.08 414.63 1004.67 411.886 1006.18C410.788 1006.78 409.69 1007.36 408.593 1007.93L407.933 1008.26C406.561 1008.95 405.215 1009.66 403.816 1010.32C403.789 1010.35 403.733 1010.35 403.706 1010.38C397.492 1013.35 391.081 1015.89 384.519 1017.98C384.492 1017.98 384.465 1018 384.437 1018C374.048 1021.29 363.336 1023.45 352.486 1024.45C347.737 1024.92 342.934 1025.14 338.075 1025.14C324.759 1025.14 311.5 1023.41 298.633 1019.98C292.068 1018.26 285.63 1016.08 279.363 1013.48C279.308 1013.45 279.28 1013.45 279.225 1013.42C278.594 1013.15 277.908 1012.87 277.277 1012.6C274.175 1011.25 271.156 1009.8 268.191 1008.26L266.902 1007.6C263.744 1005.93 260.642 1004.17 257.596 1002.28L257.431 1002.2C252.74 999.275 248.213 996.096 243.872 992.675C241.648 990.974 239.508 989.19 237.421 987.324C236.323 986.391 235.226 985.403 234.183 984.442C230.172 980.739 226.369 976.818 222.79 972.697C223.265 969.838 223.963 967.021 224.877 964.272L224.904 964.244C225.068 963.776 225.261 963.317 225.48 962.872C225.632 962.478 225.806 962.093 226.002 961.72C230.915 952.526 239.809 950.248 250.844 949.754C257.075 949.48 263.964 949.782 271.239 949.7C275.081 949.672 279.06 949.535 283.041 949.178C308.157 946.9 303.601 932.081 304.726 924.095C305.851 916.357 312.823 923.053 313.29 923.492L313.317 923.519C327.529 930.169 343.254 932.925 358.882 931.505C361.572 931.176 364.262 930.984 366.952 930.901C374.034 930.819 372.496 932.85 370.054 934.524C368.869 935.304 367.631 936.001 366.349 936.609C366.349 936.609 365.223 943.47 364.07 953.734C362.973 963.558 381.802 968.169 383.366 968.525C383.398 968.547 383.437 968.557 383.476 968.553C390.352 966.77 397.592 966.96 404.366 969.102H404.392C408.262 970.524 411.716 972.891 414.438 975.987C417.161 979.083 419.067 982.81 419.983 986.83Z" fill="#FACC15"/>
<path d="M279.637 1004.48C279.637 1006.51 279.583 1008.45 279.5 1010.29C279.473 1011.39 279.418 1012.46 279.363 1013.48C279.308 1013.45 279.28 1013.45 279.225 1013.42C278.594 1013.15 277.908 1012.87 277.277 1012.6C274.175 1011.25 271.156 1009.8 268.191 1008.26L266.902 1007.6C263.744 1005.93 260.642 1004.17 257.596 1002.28C257.678 1001.32 257.816 1000.36 257.952 999.398C258.254 997.285 258.502 995.144 258.667 993.031C259.746 978.186 257.055 963.309 250.844 949.782V949.754C250.294 948.656 249.966 948.053 249.966 948.053C249.966 948.053 257.952 941.192 269.343 948.053C270.071 948.48 270.713 949.038 271.238 949.699C278.101 957.795 279.966 985.018 279.637 1004.48Z" fill="#2F2E41"/>
<path d="M404.282 1000.74C404.172 1003.82 404.008 1007.03 403.816 1010.29V1010.32C403.789 1010.35 403.733 1010.35 403.706 1010.38C397.492 1013.35 391.081 1015.89 384.519 1017.98C384.492 1017.98 384.465 1018 384.437 1018L384.135 1010.29L384.107 1009.28L382.653 971.736C382.614 970.886 382.748 970.037 383.046 969.24C383.344 968.444 383.801 967.716 384.388 967.1C384.976 966.485 385.682 965.994 386.464 965.659C387.246 965.324 388.088 965.151 388.939 965.15H402.855C403.541 965.15 404.036 966.549 404.365 969.074V969.101C405.04 979.639 405.013 990.209 404.282 1000.74Z" fill="#2F2E41"/>
<path d="M305.312 819.698V863.058H315.353L328.131 849.37L326.421 863.058H370.805L368.06 849.37L373.55 863.058H380.626V819.698H305.312Z" fill="#2F2E41"/>
<path d="M298.467 871.033C300.357 871.033 301.889 868.224 301.889 864.76C301.889 861.295 300.357 858.486 298.467 858.486C296.576 858.486 295.044 861.295 295.044 864.76C295.044 868.224 296.576 871.033 298.467 871.033Z" fill="#A0616A"/>
<path d="M386.327 871.033C388.218 871.033 389.75 868.224 389.75 864.76C389.75 861.295 388.218 858.486 386.327 858.486C384.437 858.486 382.905 861.295 382.905 864.76C382.905 868.224 384.437 871.033 386.327 871.033Z" fill="#A0616A"/>
<path d="M429.288 994.952C426.982 996.681 424.594 998.383 422.179 999.975C421.438 1000.47 420.725 1000.93 419.983 1001.37C417.32 1003.08 414.63 1004.67 411.886 1006.18C410.788 1006.78 409.69 1007.36 408.593 1007.93V977.691C408.593 977.691 412.983 981.204 419.983 987.049C420.861 987.79 421.767 988.558 422.728 989.382C424.759 991.083 426.956 992.949 429.288 994.952Z" fill="#FACC15"/>
<path d="M479.74 827.497C472.428 806.497 460.623 787.345 445.147 771.375C429.672 755.405 410.898 743.003 390.136 735.033C369.373 727.063 347.121 723.716 324.933 725.227C302.744 726.738 281.151 733.07 261.662 743.782C242.172 754.493 225.254 769.326 212.087 787.246C198.92 805.166 189.821 825.741 185.425 847.538C181.03 869.335 181.442 891.828 186.635 913.449C191.827 935.07 201.675 955.299 215.49 972.724C216.862 974.453 218.29 976.182 219.744 977.856C219.854 977.965 219.936 978.075 220.046 978.185C223.624 982.306 227.427 986.227 231.438 989.93C232.481 990.891 233.578 991.879 234.676 992.812C236.763 994.678 238.903 996.462 241.127 998.163C245.468 1001.58 249.995 1004.76 254.686 1007.69L254.851 1007.77C257.897 1009.66 260.999 1011.42 264.157 1013.09L265.446 1013.75C268.411 1015.29 271.43 1016.74 274.532 1018.09C275.163 1018.36 275.849 1018.64 276.48 1018.91C276.535 1018.94 276.563 1018.94 276.618 1018.96C282.885 1021.57 289.323 1023.74 295.888 1025.47C308.755 1028.9 322.014 1030.63 335.331 1030.63C340.189 1030.63 344.993 1030.41 349.741 1029.94C360.591 1028.94 371.303 1026.78 381.692 1023.49C381.72 1023.49 381.747 1023.47 381.774 1023.47C388.337 1021.38 394.748 1018.84 400.961 1015.86C400.988 1015.84 401.044 1015.84 401.071 1015.81C402.47 1015.15 403.816 1014.44 405.188 1013.75L405.848 1013.42C406.945 1012.85 408.043 1012.27 409.141 1011.67C411.886 1010.16 414.575 1008.56 417.239 1006.86C417.98 1006.42 418.693 1005.96 419.434 1005.46C421.849 1003.87 424.237 1002.17 426.543 1000.44C426.956 1000.14 427.394 999.837 427.807 999.508C453.522 979.992 472.397 952.838 481.726 921.938C491.055 891.038 490.36 857.978 479.74 827.497ZM422.755 992.839C421.849 993.553 420.916 994.239 419.984 994.87C419.078 995.556 418.172 996.215 417.239 996.818C416.443 997.395 415.647 997.944 414.822 998.465C414.136 998.932 413.45 999.371 412.763 999.81C410.486 1001.24 408.181 1002.61 405.848 1003.93L405.105 1004.34C404.062 1004.91 403.02 1005.46 401.977 1006.01C401.839 1006.09 401.674 1006.15 401.537 1006.23L401.373 1006.31C400.055 1007 398.711 1007.66 397.365 1008.29C392.175 1010.79 386.83 1012.95 381.362 1014.77C380.649 1015.01 379.935 1015.26 379.222 1015.48C369.388 1018.61 359.247 1020.67 348.973 1021.63C344.471 1022.04 339.914 1022.26 335.331 1022.26C322.735 1022.28 310.192 1020.64 298.028 1017.37C291.785 1015.74 285.667 1013.67 279.72 1011.17C279.089 1010.92 278.457 1010.65 277.853 1010.4C277.525 1010.27 277.222 1010.13 276.892 1009.96C274.312 1008.84 271.76 1007.6 269.262 1006.31L268.054 1005.68C265.008 1004.09 262.015 1002.39 259.105 1000.58C258.036 999.919 256.965 999.233 255.922 998.52C252.628 996.352 249.416 994.019 246.287 991.577C244.173 989.985 242.143 988.284 240.166 986.527C239.123 985.649 238.107 984.689 237.119 983.783C233.228 980.19 229.544 976.378 226.085 972.367C224.932 971.05 223.806 969.732 222.736 968.36C222.492 968.089 222.263 967.805 222.049 967.51C204.215 945.01 193.488 917.709 191.236 889.089C188.984 860.469 195.309 831.827 209.405 806.816C223.501 781.805 244.729 761.558 270.381 748.657C296.033 735.756 324.947 730.787 353.436 734.382C381.924 737.978 408.696 749.975 430.337 768.844C451.978 787.713 467.507 812.599 474.944 840.328C482.381 868.056 481.389 897.371 472.094 924.534C462.799 951.697 445.622 975.476 422.755 992.839Z" fill="#3F3D56"/>
<path d="M336.194 1475.75C369.282 1475.75 396.105 1448.93 396.105 1415.85C396.105 1382.77 369.282 1355.95 336.194 1355.95C303.106 1355.95 276.283 1382.77 276.283 1415.85C276.283 1448.93 303.106 1475.75 336.194 1475.75Z" fill="#2F2E41"/>
<path d="M289.43 1383.56C299.112 1373.88 301.074 1360.15 293.813 1352.89C286.552 1345.63 272.817 1347.59 263.136 1357.27C253.454 1366.95 251.492 1380.68 258.753 1387.94C266.014 1395.2 279.749 1393.24 289.43 1383.56Z" fill="#2F2E41"/>
<path d="M398.638 1364.54C402.671 1355.09 395.734 1343.08 383.143 1337.7C370.552 1332.33 357.075 1335.62 353.042 1345.06C349.008 1354.5 355.945 1366.52 368.536 1371.89C381.127 1377.27 394.604 1373.98 398.638 1364.54Z" fill="#2F2E41"/>
<path d="M407.857 1532.04L400.798 1520.93C397.803 1514.24 392.278 1509.01 385.434 1506.39C378.59 1503.76 370.984 1503.96 364.282 1506.93C357.58 1509.9 352.329 1515.4 349.679 1522.24C347.028 1529.07 347.194 1536.67 350.141 1543.39L352.148 1550.58L354.433 1558.75C363.68 1557.58 372.805 1555.59 381.698 1552.8C381.724 1552.79 381.749 1552.78 381.767 1552.76C388.341 1550.68 394.759 1548.14 400.972 1545.15C401.006 1545.12 401.04 1545.12 401.075 1545.08C402.459 1544.42 403.809 1543.73 405.193 1543.04C405.419 1542.94 405.638 1542.82 405.85 1542.69C406.957 1542.14 408.065 1541.55 409.138 1540.96C410.244 1540.38 411.317 1539.75 412.355 1539.1L407.857 1532.04Z" fill="#CACACA"/>
<path d="M338.094 1480.99C366.176 1480.99 388.94 1458.23 388.94 1430.15C388.94 1402.08 366.176 1379.32 338.094 1379.32C310.013 1379.32 287.248 1402.08 287.248 1430.15C287.248 1458.23 310.013 1480.99 338.094 1480.99Z" fill="#FFB6B6"/>
<path d="M411.525 1529.86C405.916 1520.54 398.955 1512.09 390.867 1504.81C385.328 1499.86 378.158 1497.13 370.73 1497.13H299.104C294.976 1497.13 290.893 1497.98 287.105 1499.62C283.317 1501.25 279.905 1503.65 277.081 1506.66C274.256 1509.67 272.079 1513.22 270.683 1517.11C269.287 1520.99 268.703 1525.12 268.966 1529.24C269.122 1531.56 269.54 1533.86 270.212 1536.09C270.723 1537.7 271.359 1539.27 272.115 1540.79L275.644 1547.85C275.921 1547.95 276.198 1548.09 276.474 1548.19C276.543 1548.23 276.579 1548.23 276.612 1548.26C278.065 1548.85 279.52 1549.44 281.007 1549.99C285.876 1551.85 290.843 1553.45 295.886 1554.77C304.004 1556.95 312.291 1558.44 320.66 1559.23C325.539 1559.68 330.419 1559.92 335.332 1559.92C340.211 1559.92 344.986 1559.68 349.76 1559.23C351.318 1559.09 352.874 1558.92 354.432 1558.75C363.68 1557.58 372.804 1555.59 381.698 1552.8C381.724 1552.79 381.748 1552.78 381.767 1552.76C388.34 1550.68 394.758 1548.14 400.972 1545.15C401.005 1545.12 401.039 1545.12 401.075 1545.08C402.459 1544.42 403.808 1543.73 405.192 1543.04C405.418 1542.94 405.638 1542.82 405.849 1542.69C406.956 1542.14 408.064 1541.55 409.137 1540.96C410.244 1540.38 411.316 1539.75 412.354 1539.1C413.462 1538.51 414.5 1537.85 415.573 1537.19C414.259 1534.6 412.909 1532.18 411.525 1529.86Z" fill="#CACACA"/>
<path d="M312.079 1506.4C305.451 1503.3 297.864 1502.95 290.979 1505.43C284.093 1507.91 278.468 1513.01 275.333 1519.62L268.966 1529.24L265.921 1533.84L261.285 1540.83C262.253 1541.34 263.187 1541.86 264.157 1542.38L265.436 1543.04C268.413 1544.56 271.422 1546.01 274.538 1547.36C274.882 1547.54 275.264 1547.68 275.644 1547.85C275.921 1547.95 276.198 1548.09 276.474 1548.19C276.543 1548.23 276.579 1548.23 276.612 1548.26C278.065 1548.85 279.52 1549.44 281.007 1549.99C285.876 1551.85 290.843 1553.45 295.886 1554.77C304.005 1556.95 312.292 1558.44 320.66 1559.23L323.083 1551.03L325.436 1543.21C328.538 1536.56 328.874 1528.95 326.37 1522.05C323.866 1515.15 318.726 1509.52 312.079 1506.4Z" fill="#CACACA"/>
<path d="M284.667 1398.18C296.286 1406.18 310.077 1410.44 324.189 1410.39C319.155 1413.88 313.424 1416.23 307.392 1417.3C326.154 1421.32 345.545 1421.43 364.351 1417.62C368.531 1416.95 372.565 1415.56 376.275 1413.52C378.123 1412.49 379.734 1411.08 381.002 1409.38C382.27 1407.69 383.167 1405.75 383.634 1403.68C384.884 1396.54 379.321 1390.06 373.54 1385.69C364.689 1379.1 354.484 1374.56 343.662 1372.4C332.841 1370.24 321.674 1370.51 310.97 1373.19C303.838 1374.62 297.347 1378.29 292.439 1383.66C290.063 1386.39 288.63 1389.81 288.349 1393.42C288.068 1397.03 288.955 1400.63 290.879 1403.7L284.667 1398.18Z" fill="#2F2E41"/>
<path d="M479.758 1356.79C472.448 1335.78 460.644 1316.63 445.169 1300.66C429.693 1284.68 410.919 1272.28 390.155 1264.31C369.392 1256.34 347.139 1252.99 324.948 1254.5C302.758 1256.01 281.164 1262.34 261.672 1273.05C242.181 1283.77 225.262 1298.6 212.094 1316.52C198.927 1334.44 189.828 1355.02 185.433 1376.82C181.037 1398.62 181.451 1421.11 186.645 1442.73C191.84 1464.36 201.689 1484.59 215.507 1502.01C216.855 1503.74 218.31 1505.47 219.763 1507.13C219.846 1507.25 219.939 1507.37 220.04 1507.48C223.624 1511.6 227.436 1515.51 231.458 1519.2C232.495 1520.17 233.568 1521.18 234.677 1522.11C236.751 1523.98 238.897 1525.74 241.146 1527.44C242.011 1528.13 242.876 1528.82 243.776 1529.48C247.27 1532.14 250.938 1534.6 254.676 1536.99C254.74 1536.99 254.801 1537.01 254.848 1537.05C255.921 1537.71 257.029 1538.37 258.136 1538.99C259.173 1539.61 260.246 1540.24 261.285 1540.83C262.253 1541.34 263.188 1541.86 264.157 1542.38L265.436 1543.04C268.413 1544.56 271.422 1546.01 274.538 1547.36C274.882 1547.54 275.264 1547.68 275.644 1547.85C275.921 1547.95 276.199 1548.09 276.474 1548.19C276.543 1548.23 276.579 1548.23 276.612 1548.26C278.065 1548.85 279.52 1549.44 281.007 1549.99C285.876 1551.85 290.843 1553.45 295.887 1554.77C304.005 1556.95 312.292 1558.44 320.66 1559.23C325.539 1559.68 330.419 1559.92 335.332 1559.92C340.211 1559.92 344.986 1559.68 349.761 1559.23C351.318 1559.09 352.874 1558.92 354.432 1558.75C363.68 1557.58 372.805 1555.59 381.698 1552.8C381.724 1552.79 381.748 1552.78 381.767 1552.76C388.341 1550.68 394.758 1548.14 400.972 1545.15C401.006 1545.12 401.039 1545.12 401.075 1545.08C402.459 1544.42 403.808 1543.73 405.192 1543.04C405.418 1542.94 405.638 1542.82 405.85 1542.69C406.956 1542.14 408.065 1541.55 409.137 1540.96C410.244 1540.38 411.316 1539.75 412.354 1539.1C413.463 1538.51 414.5 1537.85 415.573 1537.19C416.127 1536.85 416.681 1536.5 417.234 1536.16C417.996 1535.71 418.687 1535.26 419.449 1534.74C420.486 1534.08 421.525 1533.35 422.527 1532.63C423.877 1531.69 425.227 1530.72 426.541 1529.72C426.984 1529.43 427.412 1529.12 427.822 1528.79C453.518 1509.26 472.379 1482.1 481.707 1451.21C491.035 1420.32 490.353 1387.27 479.758 1356.79ZM422.77 1522.11C421.87 1522.84 420.936 1523.53 420.003 1524.15C419.067 1524.84 418.168 1525.5 417.234 1526.12C416.438 1526.68 415.642 1527.23 414.813 1527.75C414.738 1527.81 414.656 1527.87 414.569 1527.92C413.981 1528.34 413.358 1528.72 412.77 1529.1C412.355 1529.34 411.941 1529.62 411.525 1529.86C410.314 1530.62 409.102 1531.35 407.857 1532.04C407.2 1532.45 406.507 1532.83 405.85 1533.21C405.608 1533.35 405.365 1533.49 405.123 1533.63C404.05 1534.22 403.013 1534.74 401.974 1535.29C401.837 1535.39 401.663 1535.43 401.56 1535.53C401.496 1535.53 401.434 1535.56 401.386 1535.6C400.071 1536.29 398.722 1536.95 397.373 1537.57C392.178 1540.07 386.826 1542.23 381.351 1544.04C380.66 1544.28 379.934 1544.56 379.241 1544.77C370.417 1547.57 361.344 1549.51 352.148 1550.58C351.111 1550.72 350.038 1550.82 348.965 1550.93C344.467 1551.34 339.934 1551.55 335.332 1551.55C331.248 1551.55 327.131 1551.38 323.083 1551.03C314.62 1550.33 306.236 1548.87 298.032 1546.67C291.787 1545.04 285.67 1542.96 279.728 1540.45C279.416 1540.31 279.105 1540.2 278.794 1540.06C278.448 1539.93 278.17 1539.82 277.86 1539.68C277.513 1539.55 277.236 1539.41 276.89 1539.23C274.641 1538.27 272.392 1537.19 270.213 1536.09C269.9 1535.91 269.589 1535.77 269.279 1535.6L268.067 1534.98C267.341 1534.6 266.614 1534.22 265.921 1533.84C263.603 1532.59 261.319 1531.24 259.106 1529.86C258.275 1529.34 257.376 1528.79 256.545 1528.23L255.921 1527.82C253.983 1526.5 252.047 1525.19 250.143 1523.77C248.862 1522.8 247.548 1521.87 246.303 1520.86C244.192 1519.27 242.15 1517.58 240.178 1515.81C239.139 1514.95 238.102 1513.98 237.134 1513.08C233.237 1509.49 229.552 1505.68 226.096 1501.67C224.954 1500.35 223.812 1499.04 222.739 1497.65C222.497 1497.38 222.289 1497.1 222.046 1496.79C204.208 1474.29 193.477 1446.98 191.223 1418.36C188.969 1389.73 195.293 1361.09 209.389 1336.07C223.485 1311.06 244.715 1290.81 270.37 1277.9C296.025 1265 324.942 1260.03 353.435 1263.62C381.927 1267.22 408.703 1279.21 430.348 1298.09C451.993 1316.96 467.525 1341.84 474.964 1369.58C482.402 1397.31 481.411 1426.63 472.115 1453.79C462.819 1480.96 445.641 1504.74 422.77 1522.11Z" fill="#3F3D56"/>
<path d="M591.155 609.856C537.91 564.937 472.755 536.459 403.617 527.887C334.479 519.316 264.339 531.02 201.733 561.575C139.127 592.131 86.754 640.221 50.9866 699.993C15.2192 759.765 -2.40018 828.642 0.272392 898.243C2.94497 967.844 25.7943 1035.17 66.04 1092.02C106.286 1148.88 162.192 1192.81 226.957 1218.48C291.722 1244.14 362.553 1250.44 430.83 1236.59C499.107 1222.75 561.887 1189.36 611.53 1140.49L1052.36 1512.37C1059.07 1518.01 1067.74 1520.76 1076.48 1520.02C1085.21 1519.28 1093.29 1515.1 1098.95 1508.41C1104.61 1501.71 1107.39 1493.05 1106.67 1484.31C1105.95 1475.58 1101.8 1467.48 1095.12 1461.81L1095.07 1461.76L654.244 1089.88C705.454 1016.4 727.372 926.446 715.701 837.65C704.031 748.854 659.614 667.616 591.155 609.856ZM562.736 1054.07C528.394 1094.76 482.754 1124.36 431.588 1139.11C380.422 1153.87 326.028 1153.13 275.284 1136.98C224.54 1120.83 179.725 1090 146.507 1048.39C113.289 1006.77 93.16 956.246 88.6646 903.195C84.1691 850.143 95.5096 796.951 121.252 750.343C146.994 703.736 185.982 665.807 233.285 641.353C280.589 616.899 334.083 607.018 387.003 612.959C439.923 618.901 489.892 640.399 530.592 674.733C585.169 720.775 619.216 786.606 625.245 857.746C631.273 928.885 608.788 999.505 562.736 1054.07Z" fill="#3F3D56"/>
<path opacity="0.3" d="M183.317 1086.21C131.664 1042.63 98.292 981.221 89.8278 914.181C81.3636 847.141 98.4261 779.37 137.627 724.324C132.479 729.508 127.502 734.937 122.697 740.61C99.8943 767.628 82.6378 798.872 71.9127 832.557C61.1875 866.242 57.2036 901.71 60.1885 936.934C63.1733 972.159 73.0685 1006.45 89.309 1037.85C105.55 1069.25 127.817 1097.15 154.841 1119.95C181.865 1142.74 213.115 1160 246.808 1170.72C280.5 1181.44 315.976 1185.43 351.208 1182.44C386.44 1179.46 420.74 1169.56 452.148 1153.33C483.556 1137.09 511.458 1114.83 534.26 1087.81C539.055 1082.13 543.57 1076.31 547.806 1070.36C500.128 1118.25 436.179 1146.47 368.656 1149.4C301.133 1152.34 234.974 1129.78 183.317 1086.21Z" fill="black"/>
<path d="M1479.86 1526.28C1483.3 1522.08 1485.78 1517.17 1487.12 1511.9C1488.46 1506.64 1488.63 1501.14 1487.62 1495.81C1486.61 1490.47 1484.44 1485.42 1481.26 1481.01C1478.09 1476.6 1473.98 1472.94 1469.24 1470.29L1388.89 1141.48L1330.27 1160.18L1417.04 1486.75C1413.11 1495.02 1412.35 1504.43 1414.9 1513.21C1417.46 1522 1423.14 1529.54 1430.89 1534.41C1438.63 1539.29 1447.89 1541.15 1456.92 1539.65C1465.94 1538.15 1474.11 1533.39 1479.86 1526.28Z" fill="#FFB6B6"/>
<path d="M1438.33 1315.95L1395.49 1352.9L1335.56 1404.55L1309.09 1269.15L1306.32 1255.07L1304.14 1243.9L1364.87 1138.14L1415.49 1141.05L1418.95 1141.25L1419.02 1142.02L1419.81 1149.11L1430.2 1242.44L1430.44 1244.69L1438.33 1315.95Z" fill="#3F3D56"/>
<path d="M1158.33 2235.03L1115.92 2235.03L1095.73 2071.44L1158.34 2071.44L1158.33 2235.03Z" fill="#FFB6B6"/>
<path d="M1169.15 2276.14L1032.37 2276.14V2274.41C1032.37 2260.29 1037.98 2246.75 1047.97 2236.77C1057.95 2226.79 1071.49 2221.18 1085.61 2221.18H1085.61L1169.16 2221.18L1169.15 2276.14Z" fill="#2F2E41"/>
<path d="M1601.23 2238.49L1558.82 2238.49L1538.63 2074.9L1601.24 2074.9L1601.23 2238.49Z" fill="#FFB6B6"/>
<path d="M1612.05 2279.6L1475.27 2279.6V2277.87C1475.27 2263.75 1480.88 2250.21 1490.87 2240.23C1500.85 2230.25 1514.39 2224.64 1528.51 2224.64H1528.52L1612.06 2224.64L1612.05 2279.6Z" fill="#2F2E41"/>
<path d="M1635.14 2173.37L1520.96 2190.67L1354.83 1628.58L1178.4 2194.13L1050.37 2176.83L1216.46 1519.54V1467.65L1238.95 1389.81L1236.6 1368.75L1220.23 1221.41L1213.14 1157.52L1212.68 1153.39C1212.29 1149.92 1213.21 1146.44 1215.25 1143.62C1217.3 1140.79 1220.32 1138.83 1223.73 1138.11L1277.01 1126.9H1364.11L1415.49 1141.05L1419.02 1142.02L1420.61 1142.47L1419.81 1149.11L1407.77 1250.05L1407.12 1255.59L1395.49 1352.9L1392.93 1374.25C1493.27 1446.89 1496.73 1519.54 1496.73 1519.54L1635.14 2173.37Z" fill="#2F2E41"/>
<path d="M1310.04 1083.13C1356.97 1083.13 1395.02 1045.09 1395.02 998.166C1395.02 951.24 1356.97 913.199 1310.04 913.199C1263.1 913.199 1225.05 951.24 1225.05 998.166C1225.05 1045.09 1263.1 1083.13 1310.04 1083.13Z" fill="#FFB6B6"/>
<path d="M1399.3 1354.72L1231.18 1376.7L1234.32 1400.71L1402.44 1378.73L1399.3 1354.72Z" fill="#3F3D56"/>
<path d="M1005.68 1383.94C1007.28 1384.98 1008.81 1386.15 1010.23 1387.43L1176.51 1345.05L1187.86 1304.94L1250.64 1314.14L1237.46 1387.1C1236.39 1392.99 1233.44 1398.38 1229.05 1402.45C1224.66 1406.53 1219.07 1409.07 1213.11 1409.7L1018.96 1430.14C1015.8 1436.8 1010.68 1442.34 1004.29 1446.02C997.897 1449.71 990.537 1451.36 983.186 1450.75C975.834 1450.15 968.841 1447.33 963.135 1442.65C957.429 1437.98 953.281 1431.68 951.244 1424.59C949.206 1417.51 949.374 1409.97 951.727 1402.98C954.08 1395.99 958.505 1389.88 964.414 1385.47C970.323 1381.06 977.436 1378.55 984.807 1378.27C992.178 1378 999.457 1379.98 1005.68 1383.94Z" fill="#FFB6B6"/>
<path d="M1261.44 1159.76L1232.03 1137.28C1224.08 1134.26 1213.18 1142.83 1211.27 1151.12L1169.75 1320.63L1256.25 1382.9L1268.36 1363.87L1261.44 1159.76Z" fill="#3F3D56"/>
<g opacity="0.2">
<path d="M1430.2 1242.44C1422.85 1245.36 1415.37 1247.9 1407.77 1250.05C1405.35 1250.78 1402.86 1251.47 1400.4 1252.13C1384.21 1256.62 1367.57 1259.31 1350.78 1260.16C1343.56 1260.46 1336.32 1260.26 1329.12 1259.57C1321.4 1258.8 1313.76 1257.29 1306.32 1255.07C1306.08 1255 1305.8 1254.93 1305.56 1254.86C1290.09 1250.47 1275.9 1242.41 1264.21 1231.37C1261.6 1228.83 1259.16 1226.11 1256.91 1223.24C1250.45 1215.33 1245.71 1206.16 1242.99 1196.31C1240.28 1186.47 1239.64 1176.16 1241.13 1166.06C1241.42 1164.23 1241.81 1162.42 1242.31 1160.63C1243.61 1155.76 1245.34 1151.01 1247.46 1146.44C1248.4 1144.3 1249.44 1142.19 1250.54 1140.11L1289.64 1126.9H1364.11L1415.49 1141.05L1418.95 1141.26L1419.02 1142.02L1420.61 1142.47L1419.81 1149.11L1430.2 1242.44Z" fill="black"/>
</g>
<path d="M1244.91 927.822C1229.02 925.875 1211.58 927.252 1199.19 937.396C1186.8 947.54 1182.81 968.627 1194.53 979.526C1204.92 989.174 1221.15 986.905 1235.06 989.649C1247.04 992.334 1257.78 998.959 1265.55 1008.47C1273.31 1017.97 1277.67 1029.81 1277.91 1042.08C1277.7 1077.28 1243.92 1103.93 1237.85 1138.6C1233.71 1162.26 1243.69 1187.17 1260.95 1203.88C1278.2 1220.59 1301.93 1229.63 1325.83 1232.07C1349.73 1234.52 1373.9 1230.78 1397.13 1224.64C1420.45 1218.48 1443.42 1209.73 1462.99 1195.63C1482.56 1181.52 1498.6 1161.64 1504.89 1138.35C1511.17 1115.06 1506.66 1088.35 1490.47 1070.47C1471.92 1050 1441.08 1042.96 1425.04 1020.47C1407.05 995.254 1413.71 959.351 1399.16 932.018C1389.44 913.769 1371.04 901.322 1351.43 894.765C1331.82 888.208 1310.88 886.914 1290.22 886.279C1279.35 885.945 1268.16 885.834 1258.04 889.793C1247.91 893.753 1239.02 902.777 1238.49 913.631C1237.97 924.484 1244.91 927.822 1244.91 927.822Z" fill="#2F2E41"/>
</g>
<defs>
<clipPath id="clip0_96_29">
<rect width="2044" height="2281" fill="white"/>
</clipPath>
</defs>
</svg>
